<?xml version="1.0" encoding="utf-8"?>
<!-- Generator: Adobe Illustrator 21.0.0, SVG Export Plug-In . SVG Version: 6.00 Build 0)  -->
<svg version="1.1" id="Capa_1" xmlns="http://www.w3.org/2000/svg" xmlns:xlink="http://www.w3.org/1999/xlink" x="0px" y="0px"
	 viewBox="0 0 512 512" style="enable-background:new 0 0 512 512;" xml:space="preserve">
<style type="text/css">
	.st0{fill:#FFFFFF;}
</style>
<path class="st0" d="M89.4,229.8h396.6c14.5,0,26.1,11.5,26.1,26.1c0,14.5-11.5,26.4-26.1,26.4H89.4l111.7,111.3
	c10.4,10.4,10.4,26.8,0,37.2c-10.4,10.4-26.8,10.4-37.2,0l-156-156C3,270,0,263.3,0,255.9c0-7.4,3-14.1,7.8-19l156-156
	c10.4-10.1,26.8-10.1,37.2,0c10.4,10.4,10.4,26.8,0,37.2L89.4,229.8z"/>
</svg>
