<?xml version="1.0" encoding="utf-8"?>
<!-- Generator: Adobe Illustrator 21.0.0, SVG Export Plug-In . SVG Version: 6.00 Build 0)  -->
<svg version="1.1" id="Capa_1" xmlns="http://www.w3.org/2000/svg" xmlns:xlink="http://www.w3.org/1999/xlink" x="0px" y="0px"
	 viewBox="0 0 512 512" style="enable-background:new 0 0 512 512;" xml:space="preserve">
<style type="text/css">
	.st0{fill:#FFFFFF;}
</style>
<path class="st0" d="M310.9,118.1c-10.4-10.4-10.4-26.8,0-37.2c10.4-10.1,26.8-10.1,37.2,0l156,156c4.8,4.8,7.8,11.5,7.8,19
	c0,7.4-3,14.1-7.8,19l-156,156c-10.4,10.4-26.8,10.4-37.2,0c-10.4-10.4-10.4-26.8,0-37.2l111.7-111.3H26.1
	C11.6,282.3,0,270.4,0,255.9c0-14.5,11.5-26.1,26.1-26.1h396.6L310.9,118.1z"/>
</svg>
