<?xml version="1.0" encoding="utf-8"?>
<!-- Generator: Adobe Illustrator 21.0.0, SVG Export Plug-In . SVG Version: 6.00 Build 0)  -->
<svg version="1.1" id="Capa_1" xmlns="http://www.w3.org/2000/svg" xmlns:xlink="http://www.w3.org/1999/xlink" x="0px" y="0px"
	 viewBox="0 0 512 512" style="enable-background:new 0 0 512 512;" xml:space="preserve">
<style type="text/css">
	.st0{fill:#FFFFFF;}
</style>
<g>
	<g>
		<path class="st0" d="M460.3,264.6c-2.5-11.2-8-20.7-16.4-28.3c-8.5-7.6-18.2-12.1-29.3-13.4c-35-3.8-87.9-5.7-158.6-5.7
			c-70.7,0-123.4,1.9-158.3,5.7c-11.2,1.3-21,5.8-29.4,13.4c-8.4,7.6-13.9,17-16.6,28.3c-5,22.1-7.4,55.4-7.4,100
			c0,45.3,2.5,78.7,7.4,100c2.5,11.2,8,20.7,16.4,28.3c8.5,7.6,18.2,12,29.3,13.1c35.1,4,87.9,6,158.6,6c70.7,0,123.5-2,158.6-6
			c11.1-1.1,20.8-5.5,29.1-13.1c8.4-7.6,13.9-17,16.6-28.3c5-22.1,7.4-55.4,7.4-100C467.7,319.2,465.2,285.9,460.3,264.6z
			 M165.1,293.4h-30.6V456H106V293.4H76v-26.9h89.1L165.1,293.4L165.1,293.4z M242.3,456h-25.4v-15.4c-10.3,11.6-20,17.4-29.1,17.4
			c-8.8,0-14.3-3.5-16.6-10.6c-1.5-4.6-2.3-11.5-2.3-20.9V314.9h25.4v104c0,6.1,0.1,9.4,0.3,10c0.6,4,2.6,6,6,6
			c5.1,0,10.6-4,16.3-12v-108h25.4L242.3,456L242.3,456z M339.4,413.7c0,13.9-0.9,23.4-2.6,28.6c-3.2,10.5-10,15.7-20.3,15.7
			c-9.1,0-18-5.2-26.6-15.7V456h-25.4V266.6H290v62c8.2-10.3,17-15.4,26.6-15.4c10.3,0,17,5.3,20.3,16c1.7,5,2.6,14.4,2.6,28.3
			V413.7z M436,390.3h-51.1v24.9c0,13.1,4.4,19.7,13.1,19.7c6.3,0,10.1-3.4,11.4-10.3c0.4-1.9,0.6-7.7,0.6-17.4h26v3.7
			c0,9.3-0.2,14.9-0.6,16.6c-0.6,5.1-2.6,10.3-6,15.4c-6.9,10.1-17.2,15.1-30.9,15.1c-13.1,0-23.4-4.9-30.9-14.6
			c-5.5-7-8.3-18.1-8.3-33.1v-49.4c0-15,2.7-26.1,8-33.1c7.4-9.7,17.6-14.6,30.6-14.6c12.8,0,22.9,4.9,30.3,14.6
			c5.1,7,7.7,18.1,7.7,33.1L436,390.3L436,390.3z"/>
		<path class="st0" d="M302.9,336.3c-4.4,0-8.7,2.1-12.9,6.3v86c4.2,4.2,8.5,6.3,12.9,6.3c7.4,0,11.1-6.4,11.1-19.1v-60.3
			C314,342.7,310.3,336.3,302.9,336.3z"/>
		<path class="st0" d="M397.7,336.3c-8.6,0-12.9,6.5-12.9,19.4v13.1h25.7v-13.1C410.6,342.8,406.3,336.3,397.7,336.3z"/>
		<path class="st0" d="M148.6,114v77.4h28.6V114L211.7,0h-29.1l-19.4,75.1L142.9,0h-30.3c5.3,16,11.5,33.8,18.6,53.4
			C140.1,79.7,145.9,99.9,148.6,114z"/>
		<path class="st0" d="M250,193.4c13.1,0,23.2-4.9,30.3-14.6c5.3-7,8-18.3,8-33.7v-50c0-15.2-2.7-26.4-8-33.4
			c-7-9.7-17.1-14.6-30.3-14.6c-12.8,0-22.8,4.9-30,14.6c-5.3,7-8,18.2-8,33.4v50c0,15.2,2.7,26.5,8,33.7
			C227.2,188.6,237.2,193.4,250,193.4z M237.7,90c0-13.1,4.1-19.7,12.3-19.7c8.2,0,12.3,6.6,12.3,19.7v60c0,13.3-4.1,20-12.3,20
			c-8.2,0-12.3-6.7-12.3-20V90z"/>
		<path class="st0" d="M328.6,193.4c9.5,0,19.3-5.9,29.4-17.7v15.7h26V48.9h-26v108.9c-5.7,8.2-11.1,12.3-16.3,12.3
			c-3.4,0-5.4-2.1-6-6.3c-0.2-0.4-0.3-3.7-0.3-10V48.9h-26v112.6c0,9.7,0.8,16.9,2.3,21.4C314.2,189.9,319.8,193.4,328.6,193.4z"/>
	</g>
</g>
</svg>
